<svg xmlns="http://www.w3.org/2000/svg" version="1.1" xmlns:xlink="http://www.w3.org/1999/xlink" width="1000" height="1000"><g clip-path="url(#SvgjsClipPath1034)"><rect width="1000" height="1000" fill="#ffffff"></rect><g transform="matrix(1.9943019943019944,0,0,1.9943019943019944,150,150)"><svg xmlns="http://www.w3.org/2000/svg" version="1.1" xmlns:xlink="http://www.w3.org/1999/xlink" width="351" height="351"><svg width="351" height="351" viewBox="0 0 351 351" fill="none" xmlns="http://www.w3.org/2000/svg">
<path fill-rule="evenodd" clip-rule="evenodd" d="M0 22.0754C0 9.88351 10.2038 0 22.7923 0H62.4981C71.4572 0 80.1402 3.00718 87.0676 8.5097L99.1462 18.1032L99.4482 18.3701C99.7269 18.279 100.006 18.19 100.285 18.1032C122.077 11.3431 148.515 10.0574 175.5 10.0574C202.485 10.0574 228.923 11.3431 250.715 18.1032C250.994 18.19 251.273 18.279 251.552 18.3701L251.854 18.1032L263.932 8.5097C270.86 3.00718 279.543 0 288.502 0H328.208C340.796 0 351 9.88351 351 22.0754V35.7222C351 46.2807 346.408 56.3508 338.35 63.4621L328.606 72.0614C323.849 76.2595 318.139 79.3148 311.938 80.9805L309.633 81.5997C318.662 102.466 323.65 124.771 323.65 142.814C323.65 215.395 277.283 246.742 236.428 274.362C204.255 296.114 175.5 315.553 175.5 351.001C175.5 315.553 146.745 296.114 114.572 274.362C73.7173 246.742 27.3503 215.395 27.3503 142.814C27.3503 124.771 32.3384 102.466 41.3673 81.5997L39.0623 80.9805C32.8608 79.3148 27.1513 76.2595 22.3944 72.0614L12.6504 63.4621C4.59197 56.3508 0 46.2807 0 35.7222V22.0754ZM205.13 202.152C205.13 205.62 203.569 208.945 200.791 211.397C198.013 213.849 194.244 215.227 190.315 215.227C186.923 215.227 183.65 214.199 181.031 212.341C185.489 223.897 196.896 234.848 214.247 217.238C229.564 200.875 213.566 166.364 197.98 145.885C192.784 139.059 184.256 135.774 175.5 135.774C166.744 135.774 158.216 139.059 153.02 145.885C137.434 166.364 121.436 200.875 136.753 217.238C154.104 234.848 165.511 223.897 169.969 212.341C167.35 214.199 164.077 215.227 160.685 215.227C156.756 215.227 152.987 213.849 150.209 211.397C147.431 208.945 145.87 205.62 145.87 202.152H205.13ZM118.766 99.9926H77.4938L110.02 125.218C117.178 130.768 127.64 128.994 132.069 121.478C137.661 111.989 130.233 99.9926 118.766 99.9926ZM232.234 99.9926H273.506L240.98 125.218C233.822 130.768 223.36 128.994 218.931 121.478C213.339 111.989 220.767 99.9926 232.234 99.9926Z" fill="#C96442"></path>
</svg></svg></g></g><defs><clipPath id="SvgjsClipPath1034"><rect width="1000" height="1000" x="0" y="0" rx="350" ry="350"></rect></clipPath></defs></svg>